<svg version="1.1" xmlns="http://www.w3.org/2000/svg" style="display: block;" viewBox="0 0 2158 1756" width="2158" height="1756" preserveAspectRatio="xMidYMid meet">
<path transform="translate(0,0)" fill="rgb(9,58,116)" d="M 368.872 1241.66 C 516.292 1262.79 669.403 1262.9 815.187 1286.29 C 845.621 1291.02 875.836 1297.07 905.746 1304.43 C 921.251 1308.24 937.036 1312.97 952.554 1316.79 C 954.774 1317.34 956.39 1316.66 958.266 1315.51 C 960.406 1316.33 963.881 1315.17 966.335 1314.61 C 987.17 1330.2 1008.76 1344.12 1029.89 1359.16 C 1077 1392.68 1125.34 1424.71 1170.77 1460.48 C 1184.71 1471.45 1200.11 1482.04 1214.18 1492.92 C 1215.72 1494.11 1216.5 1497.59 1216.95 1499.56 C 1206.15 1562.01 1165.13 1643.76 1111.6 1679.32 C 1031.35 1732.65 911.084 1755.74 816.802 1755.23 C 815.757 1752.64 814.283 1749.02 812.224 1747.15 C 795.534 1731.98 776.636 1717.06 759.1 1702.83 C 720.532 1671.63 681.624 1640.84 642.384 1610.48 C 625.434 1597.43 604.599 1583.42 588.717 1570.08 C 722.257 1547.7 854.447 1511.41 990.406 1505.87 C 1010.84 1505.04 1031.2 1505.14 1051.62 1504.46 C 948.435 1478.48 808.66 1492.01 702.19 1498.99 C 660.982 1501.98 619.679 1503.49 578.363 1503.51 C 549.37 1503.79 508.676 1506.93 481.899 1497.8 C 482.493 1488.64 481.592 1482.31 477.979 1473.75 C 469.171 1452.86 457.717 1431.54 447.562 1411.16 C 427.986 1372.25 408.881 1333.1 390.251 1293.73 C 383.589 1279.58 371.318 1255.94 368.872 1241.66 z"/>
<path transform="translate(0,0)" fill="rgb(9,58,116)" d="M 298.956 868.177 C 371.933 900.107 435.747 928.351 511.5 953.829 C 511.163 957.983 510.197 963.925 513.158 966.957 C 524.096 978.157 538.647 988.584 551.044 997.859 L 604.145 1037.57 C 686.159 1099.02 767.303 1161.94 847.524 1225.72 C 874.406 1247.09 919.388 1273.92 941.441 1297.77 C 935.198 1298.1 932.88 1298.16 927.637 1301.77 C 915.089 1298.69 875.459 1281.65 860.977 1276.35 C 823.763 1263.02 785.67 1252.28 746.97 1244.22 C 616.671 1215.8 476.658 1203.4 349.122 1169.93 C 349.528 1156.12 342.835 1120.97 340.255 1106.3 C 332.32 1060.95 324.142 1015.64 315.72 970.374 C 312.154 952.095 295.153 881.546 298.956 868.177 z"/>
<path transform="translate(0,0)" fill="rgb(21,84,150)" d="M 0 690.158 C 14.7835 699.605 29.1456 710.452 43.515 720.575 C 124.229 777.439 210.582 824.458 298.956 868.177 C 295.153 881.546 312.154 952.095 315.72 970.374 C 324.142 1015.64 332.32 1060.95 340.255 1106.3 C 342.835 1120.97 349.528 1156.12 349.122 1169.93 C 317.976 1161.91 286.073 1160.8 260.162 1138.08 C 242.751 1122.81 227.963 1105.68 212.531 1088.47 C 131.722 998.495 68.977 893.813 27.7164 780.131 C 16.2424 748.527 9.65707 722.344 0 691.343 L 0 690.158 z"/>
<path transform="translate(0,0)" fill="rgb(21,84,150)" d="M 67.699 1166.8 C 165.175 1202.29 266.126 1227.38 368.872 1241.66 C 371.318 1255.94 383.589 1279.58 390.251 1293.73 C 408.881 1333.1 427.986 1372.25 447.562 1411.16 C 457.717 1431.54 469.171 1452.86 477.979 1473.75 C 481.592 1482.31 482.493 1488.64 481.899 1497.8 C 352.151 1455.65 232.117 1365.7 143.58 1263.03 C 131.324 1248.85 119.627 1234.2 108.514 1219.11 C 95.335 1201.27 82.812 1183.02 67.699 1166.8 z"/>
<path transform="translate(0,0)" fill="rgb(21,84,150)" d="M 355.194 1585.62 C 412.435 1592.35 477.168 1584.02 534.3 1577.27 C 552.142 1575.17 570.916 1571.64 588.717 1570.08 C 604.599 1583.42 625.434 1597.43 642.384 1610.48 C 681.624 1640.84 720.532 1671.63 759.1 1702.83 C 776.636 1717.06 795.534 1731.98 812.224 1747.15 C 814.283 1749.02 815.757 1752.64 816.802 1755.23 L 816.962 1756 L 811.421 1756 C 805.291 1754.88 781.361 1754.46 773.503 1753.99 C 751.413 1752.7 729.403 1750.3 707.553 1746.81 C 573.478 1724.88 463.737 1665.36 355.194 1585.62 z"/>
<path transform="translate(0,0)" fill="rgb(2,33,82)" d="M 941.441 1297.77 C 947.506 1301.64 961.536 1310.13 966.335 1314.61 C 963.881 1315.17 960.406 1316.33 958.266 1315.51 C 948.68 1310.77 937.523 1306.11 927.637 1301.77 C 932.88 1298.16 935.198 1298.1 941.441 1297.77 z"/>
<path transform="translate(0,0)" fill="rgb(9,58,116)" d="M 814.513 0 L 851.62 0 L 852.639 0.138929 C 862.941 1.45192 878.419 1.48406 889.424 2.12204 C 911.982 3.40879 934.482 5.56168 956.875 8.57595 C 1074.58 24.8028 1188.84 64.0268 1287.32 131.281 C 1314.56 149.879 1337.91 169.518 1363.41 190.326 C 1347.9 213.133 1333.26 239.488 1318.59 263.163 C 1287.52 312.623 1257.11 362.49 1227.36 412.752 C 1101.84 304.924 964.192 241.373 795.6 253.753 C 674.135 262.672 545.742 318.652 555.477 463.243 C 557.645 495.448 567.678 516.155 586.79 541.783 L 576.853 548.782 C 473.502 499.511 392.3 425.352 378.838 306.358 C 371.95 246.022 389.316 185.422 427.115 137.892 C 491.983 56.5677 620.558 19.4542 719.374 7.22985 C 738.047 4.88131 756.796 3.18186 775.587 2.13458 C 787.191 1.50005 802.233 1.43767 813.4 0.138015 L 814.513 0 z"/>
<path transform="translate(0,0)" fill="rgb(9,58,116)" d="M 1461.94 1386.88 L 2158 1386.92 L 2158 1649.72 L 1585.65 1649.88 C 1487.03 1649.88 1388.02 1648.12 1289.55 1650.05 C 1370.66 1580.36 1433.56 1490.67 1461.94 1386.88 z"/>
<path transform="translate(0,0)" fill="rgb(21,84,150)" d="M 511.5 953.829 C 532.801 961.484 558.109 968.951 579.828 975.629 C 626.887 990.125 674.192 1003.81 721.722 1016.68 C 890.407 1063 1108.06 1120.2 1190.41 1292.13 C 1217.55 1348.8 1230.27 1438.06 1216.95 1499.56 C 1216.5 1497.59 1215.72 1494.11 1214.18 1492.92 C 1200.11 1482.04 1184.71 1471.45 1170.77 1460.48 C 1125.34 1424.71 1077 1392.68 1029.89 1359.16 C 1008.76 1344.12 987.17 1330.2 966.335 1314.61 C 961.536 1310.13 947.506 1301.64 941.441 1297.77 C 919.388 1273.92 874.406 1247.09 847.524 1225.72 C 767.303 1161.94 686.159 1099.02 604.145 1037.57 L 551.044 997.859 C 538.647 988.584 524.096 978.157 513.158 966.957 C 510.197 963.925 511.163 957.983 511.5 953.829 z"/>
<path transform="translate(0,0)" fill="rgb(21,84,150)" d="M 586.79 541.783 C 593.391 548.955 601.997 557.791 608.139 565.096 C 597.766 559.784 587.006 554.435 576.853 548.782 L 586.79 541.783 z"/>
<path transform="translate(0,0)" fill="rgb(9,58,116)" d="M 328.91 208.899 C 330.973 212.28 327.858 221.54 326.847 225.504 C 285.759 386.748 387.269 526.51 525.475 599.365 C 565.457 620.441 604.256 635.152 646.356 650.355 C 696.112 668.645 746.568 684.973 797.606 699.301 C 888.778 724.836 981.266 746.274 1070.18 779.199 C 1150.85 809.068 1227.28 848.599 1290.75 907.261 C 1372.84 983.125 1411.25 1092.84 1414.55 1202.92 C 1417.43 1299.15 1393.64 1402.32 1342.38 1484.66 C 1324.12 1513.99 1302.34 1539.58 1278.86 1564.72 C 1269.84 1573.49 1259.07 1582.81 1249.65 1591.33 C 1277.92 1525.07 1292.37 1474.45 1286.27 1401.88 C 1279.24 1322.63 1248.55 1247.32 1198.18 1185.73 C 995.097 942.063 616.803 989.404 379.949 797.053 C 294.175 727.395 249.121 619.186 241.215 510.774 C 233.638 406.863 260.211 289.934 328.91 208.899 z"/>
<path transform="translate(0,0)" fill="rgb(9,58,116)" d="M 1383.78 110.504 C 1409.08 108.782 1446.34 110.053 1472.33 110.117 L 1629.24 110.185 L 2133.76 110.183 L 2133.8 370.72 C 2092.7 371.027 2051.6 371.079 2010.5 370.876 L 1333.74 370.968 C 1373.12 305.059 1413.37 239.671 1454.47 174.821 C 1445.01 167.028 1382.02 116.455 1380.69 111.311 L 1383.78 110.504 z"/>
<path transform="translate(0,0)" fill="rgb(9,58,116)" d="M 1175.68 745.157 C 1183.27 744.86 1195.32 745.618 1203.29 745.752 C 1219.02 745.972 1234.74 746.032 1250.47 745.93 L 1451 745.779 L 2046.72 745.667 C 2047.67 832.417 2046.98 920.076 2046.87 1006.88 L 1443.52 1006.95 C 1405.14 906.302 1320.01 831.154 1229.89 776.174 C 1220.41 770.39 1179.42 750.187 1175.68 745.157 z"/>
</svg>